<svg width="621" height="502" viewBox="0 0 621 502" fill="none" xmlns="http://www.w3.org/2000/svg">
<path d="M130.578 379.929L7.07827 382.429C-2.12173 382.616 -0.421727 376.174 1.57827 372.929C68.9116 251.263 204.278 6.82947 207.078 2.42947C209.878 -1.97053 212.912 0.596134 214.078 2.42947C243.912 46.5961 304.078 135.729 306.078 138.929C308.078 142.129 310.245 142.596 311.078 142.429V356.929C308.278 356.929 306.578 355.596 306.078 354.929C281.745 318.929 231.778 244.629 226.578 235.429C221.378 226.229 216.745 231.596 215.078 235.429C190.578 279.929 140.878 370.129 138.078 374.929C135.278 379.729 131.912 380.263 130.578 379.929Z" fill="#E53935"/>
<path d="M489.5 379.929L613 382.429C622.2 382.616 620.5 376.174 618.5 372.929C551.167 251.263 415.8 6.82947 413 2.42947C410.2 -1.97053 407.167 0.596134 406 2.42947C376.167 46.5961 316 135.729 314 138.929C312 142.129 309.833 142.596 309 142.429V356.929C311.8 356.929 313.5 355.596 314 354.929C338.333 318.929 388.3 244.629 393.5 235.429C398.7 226.229 403.333 231.596 405 235.429C429.5 279.929 479.2 370.129 482 374.929C484.8 379.729 488.167 380.263 489.5 379.929Z" fill="#E53935"/>
<path d="M310 434.115V501.115C305.333 497.615 295.7 485.915 294.5 467.115C284.5 488.115 258.5 484.615 250.5 482.615C242.5 480.615 222 471.615 207 483.615C210 466.115 220.5 461.115 247.5 461.115C245.5 452.115 246 442.115 256.5 436.615C256.5 449.593 266 455.615 273 455.615C280 455.615 288.5 451.615 288.5 442.115C288.5 432.615 279 423.615 258 423.615C237 423.615 224.5 436.615 211 446.115C197.5 455.615 173.5 463.615 155.5 464.115C137.5 464.615 115 455.115 100 446.115C85 437.115 67 434.615 45 443.115C45.5 426.115 68 415.615 93 424.115C111.5 397.115 137.5 410.115 147 419.615C132 416.115 119 423.115 119 432.615C119 442.115 128 447.615 149 447.615C170 447.615 210 410.115 247.5 409.615C277.5 409.215 301.667 425.782 310 434.115Z" fill="#FFB300"/>
<path d="M310 434.115V501.115C314.667 497.615 324.3 485.915 325.5 467.115C335.5 488.115 361.5 484.615 369.5 482.615C377.5 480.615 398 471.615 413 483.615C410 466.115 399.5 461.115 372.5 461.115C374.5 452.115 374 442.115 363.5 436.615C363.5 449.593 354 455.615 347 455.615C340 455.615 331.5 451.615 331.5 442.115C331.5 432.615 341 423.615 362 423.615C383 423.615 395.5 436.615 409 446.115C422.5 455.615 446.5 463.615 464.5 464.115C482.5 464.615 505 455.115 520 446.115C535 437.115 553 434.615 575 443.115C574.5 426.115 552 415.615 527 424.115C508.5 397.115 482.5 410.115 473 419.615C488 416.115 501 423.115 501 432.615C501 442.115 492 447.615 471 447.615C450 447.615 410 410.115 372.5 409.615C342.5 409.215 318.333 425.782 310 434.115Z" fill="#FFB300"/>
</svg>
